<?xml version="1.0" standalone="no"?>
<!DOCTYPE svg PUBLIC "-//W3C//DTD SVG 20010904//EN"
 "http://www.w3.org/TR/2001/REC-SVG-20010904/DTD/svg10.dtd">
<svg version="1.0" xmlns="http://www.w3.org/2000/svg"
 width="1280.000000pt" height="1280.000000pt" viewBox="0 0 1280.000000 1280.000000"
 preserveAspectRatio="xMidYMid meet">
<metadata>
Created by potrace 1.15, written by Peter Selinger 2001-2017
</metadata>
<g transform="translate(0.000000,1280.000000) scale(0.100000,-0.100000)"
fill="#000000" stroke="none">
<path d="M3805 12794 c-218 -25 -305 -46 -462 -109 -230 -93 -469 -283 -631
-503 -377 -511 -435 -1178 -153 -1764 88 -183 212 -367 348 -518 l58 -64 -93
79 c-312 268 -628 421 -1002 487 -110 19 -421 16 -537 -5 -261 -49 -510 -156
-719 -310 -114 -84 -282 -260 -361 -379 -168 -251 -236 -472 -250 -803 -36
-889 453 -1526 1472 -1920 715 -276 1589 -427 3195 -550 190 -15 356 -29 370
-32 14 -4 -128 -19 -315 -34 -745 -61 -1252 -113 -1615 -164 -2025 -288 -2992
-924 -3101 -2040 -14 -141 -7 -378 16 -513 68 -412 326 -781 715 -1023 362
-224 817 -301 1242 -209 320 69 656 249 923 491 l70 64 -70 -80 c-284 -324
-445 -653 -507 -1035 -16 -99 -16 -395 1 -490 49 -288 151 -533 313 -752 158
-214 397 -407 617 -498 190 -78 332 -107 566 -117 816 -33 1425 380 1818 1232
298 649 474 1469 597 2785 28 308 80 938 80 983 0 20 5 37 10 37 6 0 10 -17
10 -37 0 -45 52 -675 80 -983 123 -1316 299 -2136 597 -2785 311 -674 759
-1075 1335 -1195 286 -59 662 -49 896 25 256 81 457 207 646 406 378 397 535
970 415 1514 -66 300 -236 626 -461 885 l-82 95 64 -58 c281 -255 620 -428
971 -499 147 -29 451 -32 595 -5 479 88 897 372 1137 773 78 131 146 317 172
476 23 135 30 372 16 513 -109 1116 -1076 1752 -3101 2040 -363 51 -870 103
-1615 164 -187 15 -329 30 -315 34 14 3 180 17 370 32 865 66 1482 137 1977
225 1609 289 2464 856 2653 1762 44 214 51 511 15 726 -26 159 -94 345 -172
476 -248 414 -664 690 -1173 777 -95 17 -391 17 -490 1 -382 -62 -711 -223
-1035 -507 l-80 -70 64 70 c509 560 662 1270 409 1910 -152 387 -477 731 -827
875 -190 78 -332 107 -566 117 -940 38 -1594 -507 -1985 -1652 -201 -590 -330
-1303 -430 -2375 -30 -327 -80 -935 -80 -980 0 -22 -4 -40 -10 -40 -5 0 -10
18 -10 40 0 45 -50 653 -80 980 -100 1072 -229 1785 -430 2375 -350 1026 -906
1564 -1699 1645 -96 9 -306 12 -376 4z"/>
</g>
</svg>
